<svg width="120" height="20" viewBox="0 0 120 20" fill="none" xmlns="http://www.w3.org/2000/svg">
<g clip-path="url(#clip0_166_48591)">
<path d="M39.2984 1.75521C39.1203 0.979399 39.6197 0.209487 40.4138 0.0354218C41.2079 -0.138493 41.9959 0.349375 42.1741 1.12503C42.3521 1.90084 41.8528 2.67075 41.0587 2.84482C40.2646 3.01873 39.4765 2.53087 39.2984 1.75521ZM38.7688 10.5846L36.6116 18.6465C36.4681 19.1829 36.7967 19.7313 37.3458 19.8715C37.4329 19.8937 37.5202 19.9043 37.6063 19.9043C38.0623 19.9043 38.4789 19.6055 38.5996 19.1542L40.4248 12.3333C39.8849 11.7872 39.4092 11.3064 39.3411 11.2384C39.0894 11.0171 38.903 10.8047 38.7688 10.5846ZM45.794 6.62783L44.3462 6.58942L42.121 3.92611C41.8811 3.59371 41.4905 3.3711 41.0424 3.35613L39.3852 3.30093C39.2203 3.29548 39.0607 3.35885 38.9467 3.4753L36.6132 5.85626C36.5093 5.96167 36.4351 6.09172 36.3981 6.23358L35.7044 8.89507C35.5866 9.3471 35.8661 9.80684 36.3288 9.92192C36.7915 10.037 37.262 9.76389 37.3798 9.31186L38.0171 6.86708L39.0374 5.83206L38.9148 9.3471C38.8928 9.97833 39.0321 10.4004 39.6394 10.9318C39.6448 10.9352 41.3896 12.7006 41.985 13.3031L42.5431 13.9239L43.9282 19.2052C44.0535 19.6825 44.4929 19.9997 44.9751 19.9997C45.0639 19.9997 45.1543 19.989 45.2443 19.9665C45.8229 19.8216 46.1718 19.246 46.0235 18.6807L44.5099 12.9095L42.1987 10.3389L42.3092 6.75683L43.3058 7.988C43.4662 8.16433 43.695 8.26717 43.9363 8.2714L45.7628 8.31647C46.2402 8.32494 46.6342 7.95367 46.6428 7.48727C46.6514 7.02118 46.2713 6.6363 45.794 6.62783ZM55.5589 4.56733C55.5589 4.56733 48.3533 6.85861 47.1109 7.25211C47.1722 7.5638 47.1213 7.87699 46.9809 8.14588C48.3691 7.70867 55.8154 5.33784 55.8154 5.33784L55.5589 4.56733ZM51.9942 17.3233C51.302 17.5465 50.8998 18.2958 51.1317 19.0018C51.3549 19.6814 52.1544 20.0971 52.8448 19.8483C53.568 19.6425 53.9547 18.8548 53.7209 18.1712C53.4815 17.4712 52.7111 17.0922 51.9942 17.3233ZM58.1082 17.9096L54.1539 19.1658C54.2796 18.8058 54.2915 18.4056 54.1627 18.0289C53.8415 17.0898 52.8081 16.5813 51.8464 16.8914C51.7482 16.923 51.6549 16.9629 51.566 17.0093C51.1857 16.1825 48.7892 10.9521 47.5933 8.29771C50.2449 7.45476 55.5354 5.77308 55.5354 5.77308L58.6141 16.9996C58.7198 17.386 58.4977 17.7859 58.1082 17.9096ZM55.2526 11.3722L55.4788 11.2987L54.3701 10.6743L53.8652 11.823L54.0813 11.7529L54.2451 12.2339L55.419 11.861L55.2526 11.3722ZM55.5633 12.2832L54.3901 12.6559C54.4803 13.0087 54.2938 13.33 53.9296 13.4483C53.5452 13.5732 53.1807 13.4016 53.0528 13.0261L52.2414 10.6427C52.1135 10.2672 52.3004 9.91648 52.6846 9.79156C53.0689 9.66665 53.4335 9.83829 53.5613 10.2138L53.6613 10.5076L54.8309 10.1276L54.731 9.83376C54.3836 8.81356 53.376 8.33416 52.3066 8.68169C51.2373 9.02921 50.7243 10.0027 51.0716 11.0229L51.8831 13.4063C52.2304 14.4265 53.238 14.9059 54.3074 14.5583C55.3538 14.2184 55.8668 13.2792 55.5633 12.2832ZM49.3429 6.19895C51.2657 5.58768 53.1887 4.9764 55.1116 4.36513C55.1402 4.35606 55.1689 4.34699 55.2102 4.33383C55.1269 4.16672 55.0251 4.03197 54.8737 3.93821C54.6249 3.78396 54.3635 3.75129 54.0796 3.84188C52.1374 4.46177 47.3304 5.98647 46.3843 6.28651C46.654 6.42776 46.8778 6.65324 47.0102 6.94073C47.7111 6.71736 48.6838 6.4084 49.3429 6.19895Z" fill="#50E501"/>
<path d="M10.812 10.9739V12.9392H7.34928V10.9739H6.7106L9.09566 8.15266L11.4807 10.9739H10.812ZM7.36012 13.4921V13.624C7.36012 14.529 6.81834 15.2095 6.00227 15.4298C4.72012 15.7762 3.45777 14.8092 3.45777 13.5095V6.57805C3.45777 5.67309 3.99971 4.99256 4.81562 4.77221C6.09778 4.4259 7.36012 5.39301 7.36012 6.69253V7.37987C7.36012 7.41677 7.39077 7.44672 7.42854 7.44672H10.8179V6.57805C10.8179 3.56177 8.57029 1.41431 5.40895 1.41431C2.2476 1.41431 0 3.56192 0 6.57805V13.624C0 16.6403 2.2476 18.7877 5.40895 18.7877C8.57029 18.7877 10.8179 16.6401 10.8179 13.624V13.4921H7.36012Z" fill="#50E501"/>
<path d="M18.685 1.69988L22.9834 18.4982C22.9908 18.5274 22.9682 18.5557 22.9374 18.5557H19.3561C19.3338 18.5557 19.3147 18.5405 19.3099 18.5192L18.7334 15.9377C18.7286 15.9165 18.7094 15.9013 18.6871 15.9013H14.713C14.6907 15.9013 14.6715 15.9164 14.6667 15.9377L14.082 18.5557H10.7097C10.6789 18.5557 10.6563 18.5274 10.6637 18.4982L14.9622 1.69988C14.9674 1.67931 14.9863 1.66479 15.0081 1.66479H18.639C18.6607 1.66479 18.6797 1.67931 18.685 1.69988ZM17.9712 12.5632L16.7462 7.3158C16.735 7.26786 16.6651 7.26786 16.6539 7.3158L15.4289 12.5632C15.4221 12.5921 15.4447 12.6197 15.475 12.6197H17.9251C17.9554 12.6197 17.978 12.5922 17.9712 12.5632Z" fill="#50E501"/>
<path d="M27.6639 1.69555L31.2161 11.5441C31.2338 11.5931 31.3081 11.5807 31.3081 11.5287V4.71728C31.3081 3.03137 32.7071 1.66455 34.4327 1.66455H34.4716C34.4977 1.66455 34.5189 1.68527 34.5189 1.71083V18.5091C34.5189 18.5347 34.4977 18.5554 34.4716 18.5554H30.6007C30.5805 18.5554 30.5627 18.543 30.5561 18.5246L27.0037 8.67602C26.9861 8.62702 26.9118 8.63942 26.9118 8.69145V18.5093C26.9118 18.5349 26.8906 18.5556 26.8644 18.5556H23.7484C23.7223 18.5556 23.701 18.5349 23.701 18.5093V1.71098C23.701 1.68542 23.7223 1.6647 23.7484 1.6647H27.6193C27.6393 1.6647 27.6573 1.6771 27.6639 1.69555Z" fill="#50E501"/>
<path d="M72.2867 4.04284C69.7343 4.04284 67.8384 5.87151 67.8384 8.31751V14.5158C67.8384 16.962 69.7345 18.7667 72.2867 18.7667C74.8391 18.7667 76.735 16.9618 76.735 14.5158V13.8509H74.2555V14.5158C74.2555 15.632 73.4048 16.4395 72.2865 16.4395C71.144 16.4395 70.3176 15.632 70.3176 14.5158V12.4024H76.7348V8.31766C76.735 5.87151 74.8391 4.04284 72.2867 4.04284ZM74.2557 10.4075H70.3177V8.31766C70.3177 7.17769 71.1442 6.37027 72.2867 6.37027C73.4049 6.37027 74.2557 7.17769 74.2557 8.31766V10.4075ZM87.1385 8.31766V18.5295H84.659V8.31766C84.659 7.17769 83.8083 6.37027 82.6901 6.37027C81.5475 6.37027 80.7211 7.17769 80.7211 8.31766V18.5295H78.2416V8.31766C78.2416 5.87151 80.1377 4.04299 82.6899 4.04299C85.2424 4.04284 87.1385 5.87151 87.1385 8.31766ZM90.8308 4.28042H91.2924V18.5295H88.8129V6.25171C88.8131 5.163 89.7164 4.28042 90.8308 4.28042ZM91.5384 1.54135C91.5384 2.37417 90.9051 2.96911 90.0527 2.96911C89.2002 2.96911 88.5912 2.37417 88.5912 1.54135C88.5912 0.708525 89.2002 0.0898438 90.0527 0.0898438C90.9051 0.0898438 91.5384 0.708525 91.5384 1.54135ZM97.3132 4.04284C94.7608 4.04284 92.8649 5.87151 92.8649 8.31751V14.5158C92.8649 16.962 94.761 18.7667 97.3132 18.7667C99.8656 18.7667 101.762 16.9618 101.762 14.5158V13.8509H99.282V14.5158C99.282 15.632 98.4313 16.4395 97.3131 16.4395C96.1706 16.4395 95.3441 15.632 95.3441 14.5158V12.4024H101.761V8.31766C101.762 5.87151 99.8655 4.04284 97.3132 4.04284ZM99.282 10.4075H95.3441V8.31766C95.3441 7.17769 96.1706 6.37027 97.3131 6.37027C98.4313 6.37027 99.282 7.17769 99.282 8.31766V10.4075ZM112.165 8.31766V18.5295H109.686V8.31766C109.686 7.17769 108.835 6.37027 107.717 6.37027C106.574 6.37027 105.748 7.17769 105.748 8.31766V18.5295H103.268V8.31766C103.268 5.87151 105.164 4.04299 107.717 4.04299C110.269 4.04284 112.165 5.87151 112.165 8.31766ZM116.197 6.6077V14.2784C116.197 15.3408 117.079 16.202 118.166 16.202H119.649V18.5293H118.166C115.614 18.5293 113.718 16.7244 113.718 14.2784V1.64146H116.198V4.28042H119.649V4.47385C119.649 5.65238 118.671 6.6077 117.465 6.6077H116.197ZM66.5779 4.19876H67.5852L63.7505 18.5295H60.9794L57.1447 4.19876H59.837L62.4621 14.516L64.7055 5.63166C64.9181 4.79007 65.6908 4.19876 66.5779 4.19876Z" fill="#50E501"/>
</g>
<defs>
<clipPath id="clip0_166_48591">
<rect width="119.649" height="20" fill="white"/>
</clipPath>
</defs>
</svg>
